<svg version="1.2" xmlns="http://www.w3.org/2000/svg" viewBox="0 0 580 580" width="580" height="580">
	<style>
		.s0 { fill: #4d00f9 } 
		.s1 { fill: #8a37f5 } 
		.s2 { fill: #3502db } 
		.s3 { fill: #6e3ad4 } 
		.s4 { fill: #8f01d5 } 
	</style>
	<g id="_Artboards_">
	</g>
	<g id="Layer 1">
		<g id="&lt;Group&gt;">
		</g>
		<g id="&lt;Group&gt;">
			<path id="&lt;Path&gt;" class="s0" d="m257.96 40.8c58.38-8.62 118.72 2.7 171.34 28.88 31.7 15.3 60.74 35.7 87.28 58.72 8 7.36 16.62 14.22 23.02 23.1-17.16-12.66-36.58-23.02-57.86-26.3-36.08-6.16-72.6 3.9-105.66 17.86-38 15.98-72.88 38.22-107.4 60.52-5.24 3.38-10.18 7.22-14.96 11.22l-0.8-1.18c-3.9-6.44-7.96-12.88-13.38-18.18-11-10.98-21.62-22.56-34.5-31.44-24.1-16.6-52.22-26.96-81.14-31.1-15.94-2.62-32.14-1.54-48.18-2.62 8.88-9.82 20.16-16.96 30.58-24.98 45.04-32.04 96.48-56.94 151.66-64.5z"/>
		</g>
		<g id="&lt;Group&gt;">
			<path id="&lt;Path&gt;" class="s1" d="m376.08 143.06c33.06-13.96 69.58-24.02 105.66-17.86 21.28 3.28 40.7 13.64 57.86 26.3 17.82 14.1 27.34 35.98 32.24 57.64 1.9 8.42 3.08 17.06 2.62 25.72-31.74-3.9-64.16-2.84-95.62 3-26.9 4.66-53.74 13.5-75.78 30.06-36.18 25.48-61.02 62.82-89.84 95.68-7.54-16-13.64-32.66-18.02-49.8-8.16-34.88-19.66-70.08-41.48-99 4.78-4 9.72-7.84 14.96-11.22 34.52-22.3 69.4-44.54 107.4-60.52z"/>
		</g>
		<g id="&lt;Group&gt;">
			<path id="&lt;Path&gt;" class="s2" d="m68.42 135.42c2.3-1.76 4.24-4.86 7.3-5.14 16.04 1.08 32.24 0 48.18 2.62 28.92 4.14 57.04 14.5 81.14 31.1 12.88 8.88 23.5 20.46 34.5 31.44 5.42 5.3 9.48 11.74 13.38 18.18-14.1 10.82-29.26 20.18-43.82 30.36-28.8 19.18-57.7 38.66-89.38 52.82-18.78 8.28-40.18 14.48-60.58 8.88-17.4-6.38-29.84-21.84-38.06-37.9-6.96-13.32-7.32-28.68-7.28-43.36 0.82-8.34 4.98-15.82 8-23.5 10.06-25.18 27.58-46.54 46.62-65.5z"/>
		</g>
		<g id="&lt;Group&gt;">
			<path id="&lt;Path&gt;" class="s3" d="m209.1 243.98c14.56-10.18 29.72-19.54 43.82-30.36l0.8 1.18c21.82 28.92 33.32 64.12 41.48 99 4.38 17.14 10.48 33.8 18.02 49.8l0.48 1.36c-12.06 12.56-22.78 26.32-35.04 38.7-16.56 16.44-34.58 31.92-55.62 42.32-33.04 17.38-73.12 23.06-108.88 10.96-28.28-9.22-51.7-29.32-69.5-52.7-32.24-43.5-46.86-100.2-37.4-153.7 1.52-8.86 2.66-17.92 6.54-26.12-0.04 14.68 0.32 30.04 7.28 43.36 8.22 16.06 20.66 31.52 38.06 37.9 20.4 5.6 41.8-0.6 60.58-8.88 31.68-14.16 60.58-33.64 89.38-52.82z"/>
		</g>
		<g id="&lt;Group&gt;">
			<path id="&lt;Path&gt;" class="s4" d="m478.84 237.86c31.46-5.84 63.88-6.9 95.62-3 1.04 16.3-3.2 32.44-8.92 47.58-5.72 15.36-15.34 28.76-23 43.14-16.82 30.82-30.28 64.14-34.18 99.26-3.94 33.8 4.18 69.48 25.08 96.7 5.9 7.9 13.56 14.18 20.26 21.38-44.62-8.38-87.48-25.76-126.08-49.6-47.94-29.76-87.76-72.8-112.24-123.76-0.42-1.14-1.26-3.46-1.68-4.6l-0.48-1.36c28.82-32.86 53.66-70.2 89.84-95.68 22.04-16.56 48.88-25.4 75.78-30.06z"/>
		</g>
	</g>
</svg>