<svg version="1.2" xmlns="http://www.w3.org/2000/svg" viewBox="0 0 1478 1552" width="1478" height="1552">
	<style>
		.s0 { fill: #5adf91 } 
		.s1 { fill: #34bb43 } 
		.s2 { fill: #fde295 } 
		.s3 { fill: #f6bd2e } 
		.s4 { fill: #b26efc } 
	</style>
	<g id="_Artboards_">
	</g>
	<g id="Layer 1">
		<g id="&lt;Group&gt;">
		</g>
		<g id="&lt;Group&gt;">
			<g id="&lt;Group&gt;">
				<path id="&lt;Compound Path&gt;" fill-rule="evenodd" class="s0" d="m184.7 400.68c181.76-107.42 363-215.74 544.76-323.16 183.4 106.36 367.1 212.24 550.66 318.34 0.58 121.4 0.7 242.82 1.1 364.22 0.1 93.8 0.88 187.6 0.52 281.38-51.22 28.94-102.08 58.54-153.2 87.7-75.54 43.32-151 86.76-226.6 129.96q-82.95 47.8-166.08 95.28c-56.48-33.74-112.84-67.7-169.3-101.5-73.9-44.38-147.84-88.72-221.78-133.08-53.52-32.06-106.94-64.28-160.52-96.22-1.94-1.26-5.06-2.48-4.26-5.44 1.54-205.82 3.32-411.66 4.7-617.48zm127.22 111.16c5.9 158.2 11.92 316.4 17.66 474.62 134.26 74.16 268.88 147.66 402.98 222.06 140.42-79.58 280.44-159.88 420.96-239.28 8.52-158.38 16.34-316.8 24.56-475.2-149.2-90.2-298.42-180.36-447.52-270.72-139.42 96.36-279.14 192.3-418.64 288.52z"/>
			</g>
		</g>
		<g id="&lt;Group&gt;">
			<g id="&lt;Group&gt;">
				<path id="&lt;Compound Path&gt;" fill-rule="evenodd" class="s1" d="m311.92 511.84c139.5-96.22 279.22-192.16 418.64-288.52 149.1 90.36 298.32 180.52 447.52 270.72-8.22 158.4-16.04 316.82-24.56 475.2-140.52 79.4-280.54 159.7-420.96 239.28-134.1-74.4-268.72-147.9-402.98-222.06-5.74-158.22-11.76-316.42-17.66-474.62zm418.3-169.22c-0.08 1.32-0.28 3.98-0.38 5.3-26.84 83.68-53.12 167.6-79.38 251.48-90.54-2.28-181.1-4.34-271.64-7.04 2.08 1.26 4.18 2.64 6.56 3.32 2.18 2.08 4.44 4.14 6.94 5.86 68.82 49.76 136.94 100.52 206.02 149.9-1.7 8-5.16 15.48-7.72 23.22-19.14 53.04-38 106.18-57.12 159.22-8.28 24.12-17.78 47.86-25.36 72.2q1.86-2.03 3.6-4.12c72-51.1 143.74-102.64 215.46-154.16 44.94 35.4 90.2 70.4 135.22 105.7 27 20.68 53.32 42.32 80.76 62.38-1.86-2.34-3.7-4.7-5.36-7.16-0.32-5.82-2.7-11.2-4.32-16.72-24.14-77.32-48.36-154.62-72.44-231.96-0.7-2.06-1.3-4.62-3.8-5.08 6.2-3.5 11.92-7.76 17.86-11.7 69.6-46.9 139.1-94 208.76-140.84-3.12 0.8-6.22 1.6-9.26 2.52-4.08-1.46-8.36-1.16-12.56-1.2-52.7-0.4-105.38-1.46-158.08-1.78-30.82-0.66-61.7-0.08-92.48-1.5-4.06-17.14-10.38-33.68-15.38-50.58-21.24-67.42-42.56-134.82-63.68-202.28-0.56-1.24-1.66-3.74-2.22-4.98z"/>
			</g>
		</g>
		<g id="&lt;Group&gt;">
			<path id="&lt;Path&gt;" class="s2" d="m730.22 342.62c0.56 1.24 1.66 3.74 2.22 4.98 21.12 67.46 42.44 134.86 63.68 202.28 5 16.9 11.32 33.44 15.38 50.58-27.72 34.34-54.08 69.84-81.18 104.7-0.86-119.08 0.1-238.18-0.48-357.24 0.1-1.32 0.3-3.98 0.38-5.3z"/>
		</g>
		<g id="&lt;Group&gt;">
			<path id="&lt;Path&gt;" class="s3" d="m650.46 599.4c26.26-83.88 52.54-167.8 79.38-251.48 0.58 119.06-0.38 238.16 0.48 357.24l0.04 2.74c1.42-0.4 4.26-1.22 5.68-1.64q-2.56 1.64-4.96 3.5c-0.4 0.6-1.2 1.78-1.6 2.38-0.12-0.52-0.36-1.54-0.48-2.06-12.08-19.34-26.3-37.32-39.24-56.12-13.16-18.14-25.8-36.68-39.3-54.56z"/>
		</g>
		<g id="&lt;Group&gt;">
			<path id="&lt;Path&gt;" class="s2" d="m378.82 592.36c90.54 2.7 181.1 4.76 271.64 7.04 13.5 17.88 26.14 36.42 39.3 54.56 12.94 18.8 27.16 36.78 39.24 56.12l-2.44 0.58c-7.28-0.98-14.02-3.96-20.94-6.22-106.78-36.12-213.36-72.92-320.24-108.76-2.38-0.68-4.48-2.06-6.56-3.32z"/>
		</g>
		<g id="&lt;Group&gt;">
			<path id="&lt;Path&gt;" class="s3" d="m385.38 595.68c106.88 35.84 213.46 72.64 320.24 108.76 6.92 2.26 13.66 5.24 20.94 6.22-40.26 12.28-80.38 25.02-120.62 37.32-2.64 0.9-5.14 2.14-7.6 3.46-69.08-49.38-137.2-100.14-206.02-149.9-2.5-1.72-4.76-3.78-6.94-5.86z"/>
		</g>
		<g id="&lt;Group&gt;">
			<path id="&lt;Path&gt;" class="s3" d="m730.32 705.16c27.1-34.86 53.46-70.36 81.18-104.7 30.78 1.42 61.66 0.84 92.48 1.5 52.7 0.32 105.38 1.38 158.08 1.78 4.2 0.04 8.48-0.26 12.56 1.2-112.88 33.74-225.66 67.74-338.58 101.32-1.42 0.42-4.26 1.24-5.68 1.64z"/>
		</g>
		<g id="&lt;Group&gt;">
			<path id="&lt;Path&gt;" class="s2" d="m1074.62 604.94c3.04-0.92 6.14-1.72 9.26-2.52-69.66 46.84-139.16 93.94-208.76 140.84-5.94 3.94-11.66 8.2-17.86 11.7-42.04-15.12-84.36-29.52-126.18-45.2q2.41-1.86 4.96-3.5c112.92-33.58 225.7-67.58 338.58-101.32z"/>
		</g>
		<g id="&lt;Group&gt;">
			<path id="&lt;Path&gt;" class="s2" d="m726.56 710.66l2.44-0.58c0.12 0.52 0.36 1.54 0.48 2.06v1.36c-72.54 96.18-145.28 192.22-217.74 288.46q-1.74 2.09-3.6 4.12c7.58-24.34 17.08-48.08 25.36-72.2 19.12-53.04 37.98-106.18 57.12-159.22 2.56-7.74 6.02-15.22 7.72-23.22 2.46-1.32 4.96-2.56 7.6-3.46 40.24-12.3 80.36-25.04 120.62-37.32z"/>
		</g>
		<g id="&lt;Group&gt;">
			<path id="&lt;Path&gt;" class="s2" d="m729.48 712.14c0.4-0.6 1.2-1.78 1.6-2.38 68.76 99.76 137.98 199.2 206.74 298.96 1.66 2.46 3.5 4.82 5.36 7.16-27.44-20.06-53.76-41.7-80.76-62.38-45.02-35.3-90.28-70.3-135.22-105.7 0.76-44.78 1.62-89.54 2.28-134.3z"/>
		</g>
		<g id="&lt;Group&gt;">
			<path id="&lt;Path&gt;" class="s3" d="m731.08 709.76c41.82 15.68 84.14 30.08 126.18 45.2 2.5 0.46 3.1 3.02 3.8 5.08 24.08 77.34 48.3 154.64 72.44 231.96 1.62 5.52 4 10.9 4.32 16.72-68.76-99.76-137.98-199.2-206.74-298.96z"/>
		</g>
		<g id="&lt;Group&gt;">
			<path id="&lt;Path&gt;" class="s3" d="m511.74 1001.96c72.46-96.24 145.2-192.28 217.74-288.46-0.66 44.76-1.52 89.52-2.28 134.3-71.72 51.52-143.46 103.06-215.46 154.16z"/>
		</g>
		<g id="&lt;Group&gt;">
			<path id="&lt;Path&gt;" class="s4" d="m344.78 1119.82c73.94 44.36 147.88 88.7 221.78 133.08-43.04 74.82-86.18 149.6-129.24 224.4-3 5.34-6.56 10.4-8.48 16.28-17.3-54.02-36-107.58-53.46-161.54-28.32 4.5-56.34 11.14-84.54 16.46-28.12 5.7-56.3 11.2-84.42 17.02 13.16-20.84 24.28-42.94 36.66-64.26 33.9-60.48 67.76-120.98 101.7-181.44z"/>
		</g>
		<g id="&lt;Group&gt;">
			<path id="&lt;Path&gt;" class="s4" d="m901.94 1259.12c75.6-43.2 151.06-86.64 226.6-129.96 43.9 78.7 88.26 157.14 132.04 235.9-55.58-10.56-110.96-22.32-166.52-33.02l-1.32 0.64c-14.1 41.78-27.92 83.68-41.9 125.52-4.08 11.22-6.98 22.92-11.82 33.84-43.4-76.24-87.66-152.02-131.18-228.2-1.56-1.9-2.52-7.12-5.9-4.72z"/>
		</g>
	</g>
</svg>