<?xml version="1.0" encoding="UTF-8" ?>
<!DOCTYPE svg PUBLIC "-//W3C//DTD SVG 1.1//EN" "http://www.w3.org/Graphics/SVG/1.1/DTD/svg11.dtd">
<svg width="1280pt" height="720pt" viewBox="0 0 1280 720" version="1.1" xmlns="http://www.w3.org/2000/svg">
<g id="#101113ff">
</g>
<g id="#ffffffff">
<path fill="#ffffff" opacity="1.00" d=" M 570.84 131.70 C 591.87 126.78 613.58 128.06 635.00 127.99 C 711.00 128.03 786.99 127.97 862.99 128.01 C 863.01 155.00 863.02 181.99 862.98 208.98 C 777.98 209.04 692.99 208.97 607.99 209.00 C 587.27 209.07 566.08 210.47 546.81 218.78 C 504.63 235.59 473.34 276.03 466.73 320.85 C 463.93 338.34 464.27 356.41 468.36 373.68 C 556.72 374.48 645.10 373.69 733.47 374.06 C 729.04 390.89 722.03 407.35 710.81 420.80 C 699.82 434.71 684.19 445.80 666.35 448.35 C 652.93 449.54 639.44 448.93 626.00 449.02 C 547.67 448.96 469.35 449.04 391.02 448.98 C 390.94 408.98 391.07 368.99 390.94 329.00 C 389.94 296.26 400.87 264.16 417.08 236.07 C 449.95 180.97 508.28 143.54 570.84 131.70 Z" />
<path fill="#ffffff" opacity="1.00" d=" M 586.12 256.18 C 592.32 254.95 598.69 255.18 604.99 254.96 C 690.99 255.05 776.99 254.96 862.99 255.01 C 862.91 300.34 863.20 345.68 862.89 391.01 C 857.49 448.45 822.97 500.55 776.21 533.21 C 740.90 557.67 699.03 573.42 656.02 575.91 C 567.69 576.13 479.35 575.95 391.02 575.98 C 390.98 548.99 390.97 522.00 391.02 495.02 C 477.68 494.99 564.34 494.96 651.01 495.05 C 672.89 495.39 695.33 491.96 715.01 482.00 C 749.49 465.03 776.15 432.45 784.97 394.93 C 790.02 373.82 790.66 351.49 785.55 330.34 C 697.26 329.50 608.95 330.31 520.66 329.94 C 526.01 310.77 534.57 292.01 548.60 277.60 C 558.58 266.98 571.52 258.48 586.12 256.18 Z" />
</g>
</svg>
