<svg version="1.2" xmlns="http://www.w3.org/2000/svg" viewBox="0 0 1200 1200" width="1200" height="1200">
	<style>
		.s0 { fill: #ffffff } 
		.s1 { fill: #000000 } 
		.s2 { fill: #90a4ad } 
	</style>
	<g id="_Artboards_">
	</g>
	<g id="Layer 1">
		<g id="&lt;Group&gt;">
		</g>
		<g id="&lt;Group&gt;">
			<g id="&lt;Group&gt;">
				<path id="&lt;Compound Path&gt;" fill-rule="evenodd" class="s0" d="m211.87 151.82c6.17-2 12.73-1.87 19.13-1.89q371 0.01 742.01 0.01c10.64-0.16 21.55 2.53 30.27 8.79 13.7 9.31 22.08 25.72 21.74 42.26 0.1 176.34 0.02 352.67 0.05 529-0.11 50.17 0.2 100.36-0.16 150.51-2.42 17.92-14.47 34.44-31.55 40.9-7.63 3.45-16.12 3.6-24.34 3.64q-333.49 0-666.99 0.01c-25.71-0.09-51.42 0.17-77.12-0.14-14.97 0.12-29.71-7.12-38.95-18.85-6.15-7.49-9.65-16.87-10.84-26.43-0.4-52.18-0.01-104.38-0.15-156.57-0.01-172.35 0.02-344.7-0.02-517.05-0.2-7.77 0.22-15.72 3.12-23.02 5.24-15.05 18.3-27.29 33.8-31.17zm138.02 148.23q0.23 99.95 0 199.89c16.7 0.13 33.4 0.03 50.11 0.06q0.02-100 0-200c-16.71 0.03-33.41-0.08-50.11 0.05zm174.81 0.07c-41.35 33.45-83.16 66.34-124.46 99.85 41.37 33.54 83.17 66.57 124.69 99.95 0.18-24.96-0.01-49.92 0.1-74.88 108.3-0.11 216.6 0.03 324.9-0.06 0.16-16.65 0.14-33.3 0.01-49.94-108.3-0.12-216.61 0.04-324.92-0.09-0.25-24.93 0.39-49.93-0.32-74.83zm150.35 299.88c-0.16 24.99 0.08 49.99-0.12 74.99-108.28 0.04-216.56-0.01-324.85 0.01-0.26 16.66 0.06 33.32-0.2 49.97 108.35 0.09 216.71-0.03 325.06 0.06 0.17 24.94-0.01 49.89 0.08 74.84 2.79-2.17 5.62-4.31 8.37-6.53 38.75-31.2 77.79-62.07 116.47-93.36-41.46-33.5-83.22-66.63-124.81-99.98zm124.95 0q-0.01 100 0 200 25 0.01 50.01-0.01c0-66.66 0.03-133.32-0.01-199.98-16.67-0.03-33.33 0-50-0.01z"/>
			</g>
		</g>
		<g id="&lt;Group&gt;">
			<path id="&lt;Path&gt;" class="s1" d="m349.89 300.05c16.7-0.13 33.4-0.02 50.11-0.05q0.02 100 0 200c-16.71-0.03-33.41 0.07-50.11-0.06q0.23-99.94 0-199.89z"/>
			<path id="&lt;Path&gt;" class="s1" d="m524.7 300.12c0.71 24.9 0.07 49.9 0.32 74.83 108.31 0.13 216.62-0.03 324.92 0.09 0.13 16.64 0.15 33.29-0.01 49.94-108.3 0.09-216.6-0.05-324.9 0.06-0.11 24.96 0.08 49.92-0.1 74.88-41.52-33.38-83.32-66.41-124.69-99.95 41.3-33.51 83.11-66.4 124.46-99.85z"/>
			<path id="&lt;Path&gt;" class="s1" d="m675.05 600c41.59 33.35 83.35 66.48 124.81 99.98-38.68 31.29-77.72 62.16-116.47 93.36-2.75 2.22-5.58 4.36-8.37 6.53-0.09-24.95 0.09-49.9-0.08-74.84-108.35-0.09-216.71 0.03-325.06-0.06 0.26-16.65-0.06-33.31 0.2-49.97 108.29-0.02 216.57 0.03 324.85-0.01 0.2-25-0.04-50 0.12-74.99z"/>
			<path id="&lt;Path&gt;" class="s1" d="m800 600c16.67 0.01 33.33-0.02 50 0.01 0.04 66.66 0.01 133.32 0.01 199.98q-25.01 0.02-50.01 0.01-0.01-100 0-200z"/>
		</g>
		<g id="&lt;Group&gt;">
			<path id="&lt;Path&gt;" class="s2" d="m175.12 879.63c1.19 9.56 4.69 18.94 10.84 26.43 9.24 11.73 23.98 18.97 38.95 18.85 25.7 0.31 51.41 0.05 77.12 0.14q333.5-0.01 666.99-0.01c8.22-0.04 16.71-0.19 24.34-3.64 17.08-6.46 29.13-22.98 31.55-40.9 0.2 24.51 0.18 49.04 0 73.55-0.82 22.97-10.15 45.38-25.37 62.52-13.22 14.44-30.43 25.43-49.5 30.19-9.46 2.55-19.3 3.44-29.06 3.28q-311.98-0.01-623.95-0.01c-14.04-0.23-28.27 0.97-42.1-2.1-30.66-6.19-57.83-27.71-70.69-56.24-6.65-13.86-9.56-29.35-9.27-44.67 0.13-22.46-0.22-44.94 0.15-67.39z"/>
		</g>
	</g>
</svg>